<?xml version="1.0" encoding="utf-8"?>
<!-- Generator: Adobe Illustrator 24.1.2, SVG Export Plug-In . SVG Version: 6.00 Build 0)  -->
<svg version="1.1" id="Layer_1" xmlns="http://www.w3.org/2000/svg" xmlns:xlink="http://www.w3.org/1999/xlink" x="0px" y="0px"
	 viewBox="0 0 143.6 36.3" style="enable-background:new 0 0 143.6 36.3;" xml:space="preserve">
<style type="text/css">
	.st0{fill:#FFFFFF;}
</style>
<g>
	<path class="st0" d="M14.4,2.9c1.2-1.4,2.8-2.2,4.6-2.4c0.1,1.8-0.4,3.6-1.6,5c-1.1,1.4-2.9,2.2-4.7,2.2C12.7,6,13.3,4.3,14.4,2.9z
		 M23.4,28.1c-1.3,1.9-2.6,3.8-4.8,3.9c-2.1,0-2.8-1.2-5.2-1.2s-3.2,1.2-5.2,1.3s-3.6-2.1-4.9-4c-2.7-3.9-4.8-11-2-15.8
		c1.3-2.4,3.8-3.9,6.5-3.9c2,0,3.9,1.4,5.2,1.4c1.2,0,3.6-1.7,6-1.5c2.3,0.1,4.4,1.2,5.8,3.1c-2.1,1.3-3.4,3.5-3.4,6
		c0,2.8,1.7,5.3,4.2,6.4C25.1,25.2,24.4,26.7,23.4,28.1z"/>
</g>
<path class="st0" d="M104.6,3c-0.9-0.6-2.2-0.6-3.2,0s-1.5,1.7-1.4,2.9c-0.1,1.2,0.5,2.3,1.3,2.9c1,0.6,2.3,0.6,3.3,0
	s1.5-1.7,1.4-2.9C106.2,4.7,105.6,3.6,104.6,3z M103.1,8.1c-1.1,0-1.8-0.8-1.7-2.2c0-1.4,0.6-2.2,1.7-2.2s1.7,0.8,1.7,2.2
	S104.2,8.1,103.1,8.1z"/>
<path class="st0" d="M80,5.9c0.2-1.2-0.4-2.3-1.4-2.9c-0.9-0.6-2.2-0.6-3.2,0S73.9,4.7,74,5.9c-0.2,1.2,0.4,2.3,1.4,2.9
	s2.3,0.6,3.3,0S80.3,7.1,80,5.9z M77.1,8.1c-1.1,0-1.7-0.8-1.7-2.2s0.6-2.2,1.7-2.2s1.7,0.8,1.7,2.2S78.2,8.1,77.1,8.1z"/>
<path class="st0" d="M84.4,2.4c-1.5,0-2.6,0.7-2.7,1.8h1.2c0.2-0.4,0.7-0.7,1.4-0.7c0.8,0,1.3,0.4,1.3,1.1v0.6l-1.8,0.1
	c-1.5,0.1-2.4,0.7-2.4,1.9c0.1,0.6,0.3,1.1,0.7,1.5c0.4,0.4,0.9,0.6,1.5,0.5c0.8,0.1,1.6-0.3,2-1h0.1v1h1.2V4.6
	C86.9,3.2,86,2.4,84.4,2.4z M85.6,6.7c0,0.4-0.2,0.8-0.5,1.1c-0.3,0.3-0.7,0.4-1.1,0.4c-0.7,0-1.2-0.3-1.2-0.9s0.4-0.9,1.2-1
	l1.6-0.1V6.7z"/>
<path class="st0" d="M51.8,5.9C52,4.7,51.4,3.6,50.4,3c-0.9-0.6-2.2-0.6-3.2,0s-1.5,1.7-1.4,2.9c-0.2,1.2,0.4,2.3,1.4,2.9
	s2.3,0.6,3.3,0S52,7.1,51.8,5.9z M48.9,8.1c-1.1,0-1.7-0.8-1.7-2.2s0.6-2.2,1.7-2.2s1.7,0.8,1.7,2.2S50,8.1,48.9,8.1z"/>
<path class="st0" d="M59.7,18.8c-1.7-0.1-3.3,0.8-4.2,2.3v-2.2h-2.6v17.4h2.7v-6.5h0.1c0.8,1.5,2.4,2.4,4.1,2.3
	c3.3,0,5.5-2.6,5.4-6.6C65.2,21.4,63,18.8,59.7,18.8z M59.1,29.8c-2,0-3.4-1.8-3.4-4.4s1.4-4.4,3.4-4.4s3.4,1.8,3.5,4.4
	C62.6,28.1,61.2,29.8,59.1,29.8z"/>
<path class="st0" d="M93.4,0v3.6h-0.1c-0.4-0.7-1.2-1.1-2-1.1c-1.6,0-2.7,1.3-2.6,3.2c0,2.1,1,3.4,2.7,3.4c0.8,0.1,1.6-0.4,2-1.1
	h0.1v1h1.2V0C94.7,0,93.4,0,93.4,0z M91.7,8.1c-1.1,0-1.7-0.8-1.7-2.2c0-1.4,0.6-2.2,1.7-2.2c1,0,1.7,0.8,1.7,2.2S92.8,8.1,91.7,8.1
	z"/>
<path class="st0" d="M137,6.2V5.8c0-2.1-1.1-3.3-2.9-3.3c-0.9,0-1.7,0.3-2.3,1s-0.9,1.6-0.7,2.3c-0.1,0.9,0.1,1.8,0.7,2.4
	c0.6,0.7,1.4,1,2.3,1c1.3,0.1,2.4-0.7,2.8-1.9h-1.2c-0.3,0.6-0.9,0.9-1.5,0.8c-0.5,0.1-1-0.1-1.3-0.5c-0.4-0.3-0.5-0.8-0.5-1.3V6.2
	H137z M132.3,5.3c0-0.5,0.2-0.9,0.5-1.2s0.8-0.5,1.2-0.5c0.5,0,0.9,0.2,1.2,0.5s0.5,0.8,0.4,1.2H132.3z"/>
<path class="st0" d="M44.9,14.1h-3L35.4,32h2.9l1.6-4.8h6.8l1.6,4.8h3.1L44.9,14.1z M40.6,24.9l2.6-7.9h0.1l2.7,7.9H40.6z"/>
<path class="st0" d="M74.1,18.8c-1.7-0.1-3.3,0.8-4.2,2.3v-2.2h-2.6v17.4H70v-6.5h0.1c0.8,1.5,2.4,2.4,4.1,2.3
	c3.3,0,5.4-2.6,5.4-6.6C79.6,21.4,77.4,18.8,74.1,18.8z M73.4,29.8c-2,0-3.4-1.8-3.4-4.4s1.4-4.4,3.4-4.4c2.1,0,3.5,1.8,3.5,4.4
	C76.9,28.1,75.5,29.8,73.4,29.8z"/>
<path class="st0" d="M116.1,18.7c-3.8,0-6.2,2.6-6.2,6.7s2.4,6.7,6.2,6.7c3.8,0,6.2-2.6,6.2-6.7S119.9,18.7,116.1,18.7z M116.1,29.9
	c-2.2,0-3.5-1.7-3.5-4.5s1.3-4.5,3.5-4.5c2.1,0,3.4,1.7,3.5,4.5C119.6,28.2,118.3,29.9,116.1,29.9z"/>
<path class="st0" d="M143.6,26.1v-0.9c0-3.9-2.3-6.4-5.9-6.4c-3.6,0-6,2.7-6,6.8s2.4,6.6,6.2,6.6c2.9,0,5.2-1.6,5.6-4H141
	c-0.5,1.2-1.7,1.9-3,1.8c-1,0-1.9-0.4-2.6-1.1s-1-1.6-0.9-2.6v-0.2H143.6z M134.4,24.3c0-0.9,0.4-1.8,1-2.4c0.7-0.7,1.5-1,2.4-1
	s1.7,0.3,2.2,1c0.6,0.7,0.9,1.5,0.9,2.4H134.4z"/>
<path class="st0" d="M118.3,2.7h1V1.1h1.3v1.6h1.4v1.1h-1.4v3.3c0,0.7,0.3,1,0.9,1c0.2,0,0.3,0,0.5,0v1.1c-0.2,0-0.5,0.1-0.7,0.1
	c-1.4,0-2-0.5-2-1.8V3.8h-1V2.7z"/>
<rect x="70.9" y="0.1" class="st0" width="1.3" height="9"/>
<polygon class="st0" points="54.2,2.7 55.4,7.7 55.5,7.7 56.8,2.7 58,2.7 59.3,7.7 59.4,7.7 60.6,2.7 61.9,2.7 60.1,9.2 58.8,9.2 
	57.5,4.4 57.4,4.4 56,9.2 54.7,9.2 52.9,2.7 "/>
<path class="st0" d="M66.2,3.7c-0.4,0-0.9,0.2-1.2,0.5c-0.3,0.3-0.4,0.7-0.4,1.2v3.8h-1.3V2.7h1.2v1h0.1c0.3-0.8,1.1-1.2,1.9-1.2
	c0.6,0,1.3,0.2,1.7,0.7c0.4,0.5,0.6,1.1,0.5,1.7v4.3h-1.3V5.3C67.6,4.2,67.2,3.7,66.2,3.7z"/>
<path class="st0" d="M93.2,32.3c-4,0-6.7-2.1-6.8-5.3h2.7c0.2,1.8,1.9,2.9,4.3,2.9c2.3,0,3.9-1.2,3.9-2.8c0-1.4-1-2.2-3.3-2.8
	l-2.3-0.6c-3.3-0.8-4.8-2.3-4.8-4.8c0-3.1,2.7-5.2,6.5-5.2s6.4,2.1,6.5,5.2h-2.7C97,17.1,95.6,16,93.4,16c-2.2,0-3.6,1.1-3.6,2.7
	c0,1.3,0.9,2,3.3,2.6l2,0.5c3.7,0.9,5.2,2.3,5.2,5C100.2,30.2,97.5,32.3,93.2,32.3z"/>
<path class="st0" d="M108.4,21h-2.5v7.2c0,1.1,0.5,1.6,1.6,1.6c0.3,0,0.6,0,0.9-0.1v2.1c-0.5,0.1-1,0.1-1.5,0.1
	c-2.6,0-3.7-1-3.7-3.5v-7.5h-1.9v-2.1h1.9v-3.1h2.7v3.1h2.5V21z"/>
<path class="st0" d="M109.1,5.4v3.8h-1.2V2.7h1.2v1h0.1c0.3-0.8,1.1-1.2,1.9-1.2c0.6,0,1.3,0.2,1.7,0.7c0.4,0.5,0.6,1.1,0.5,1.7v4.3
	H112V5.3c0-1-0.5-1.6-1.4-1.6c-0.4,0-0.9,0.2-1.2,0.5C109.2,4.5,109.1,4.9,109.1,5.4z"/>
<path class="st0" d="M123.8,0.1h1.3v3.6h0.1c0.3-0.8,1.1-1.2,2-1.2c0.6,0,1.3,0.2,1.7,0.7s0.6,1.1,0.5,1.7v4.3h-1.3V5.3
	c0-1-0.5-1.6-1.4-1.6c-0.4,0-0.9,0.1-1.2,0.4c-0.3,0.3-0.5,0.8-0.4,1.2v3.9h-1.3L123.8,0.1L123.8,0.1z"/>
<path class="st0" d="M131.2,21.4c-0.4-0.1-0.8-0.2-1.2-0.2c-0.8,0-1.6,0.3-2.1,0.9c-0.5,0.6-0.8,1.4-0.7,2.1V32h-2.7V18.9h2.6v2.2
	h0.1c0.4-1.4,1.7-2.4,3.1-2.4c0.3,0,0.6,0,0.9,0.1L131.2,21.4L131.2,21.4z"/>
<path class="st0" d="M43.2,1.7c-0.7-0.8-1.9-1.3-3-1.2h-3.1H37v8.6h3.1c2.6,0,4.1-1.5,4.1-4.3C44.4,3.7,44,2.5,43.2,1.7z M42.3,7
	c-0.6,0.6-1.4,0.9-2.2,0.9h-1.6V1.7h1.6c0.8,0,1.6,0.3,2.1,0.9C42.8,3.2,43,4,42.9,4.8C43.1,5.6,42.8,6.5,42.3,7z"/>
</svg>
