<?xml version="1.0" encoding="utf-8"?>
<!-- Generator: Adobe Illustrator 24.1.2, SVG Export Plug-In . SVG Version: 6.00 Build 0)  -->
<svg version="1.1" id="Layer_1" xmlns="http://www.w3.org/2000/svg" xmlns:xlink="http://www.w3.org/1999/xlink" x="0px" y="0px"
	 viewBox="0 0 152.2 36.9" style="enable-background:new 0 0 152.2 36.9;" xml:space="preserve">
<style type="text/css">
	.st0{fill:#FFFFFF;}
</style>
<g>
	<path class="st0" d="M79,17.5c-1-1.1-2.4-1.7-4.1-1.7c-1.6,0-3,0.6-4.1,1.7c-1.1,1.2-1.6,2.6-1.6,4.3c0,1.7,0.5,3.2,1.6,4.3
		c1,1.1,2.4,1.7,4.1,1.7c1.6,0,3-0.6,4.1-1.7c1.1-1.1,1.6-2.6,1.6-4.3C80.6,20.1,80.1,18.6,79,17.5z M77.4,24.7
		c-0.7,0.7-1.6,1.1-2.6,1.1s-1.9-0.4-2.6-1.1c-0.7-0.7-1.1-1.7-1.1-2.9c0-1.2,0.4-2.2,1.1-2.9c0.7-0.7,1.6-1.1,2.6-1.1
		s1.9,0.3,2.6,1.1c0.7,0.7,1.1,1.7,1.1,2.9C78.5,23,78.1,24,77.4,24.7z"/>
	<path class="st0" d="M66.7,17.5c-1-1.1-2.4-1.7-4.1-1.7c-1.6,0-3,0.6-4.1,1.7c-1.1,1.2-1.6,2.6-1.6,4.3c0,1.7,0.5,3.2,1.6,4.3
		c1,1.1,2.4,1.7,4.1,1.7c1.6,0,3-0.6,4.1-1.7c1.1-1.1,1.6-2.6,1.6-4.3C68.3,20.1,67.8,18.6,66.7,17.5z M65.2,24.7
		c-0.7,0.7-1.6,1.1-2.6,1.1s-1.9-0.4-2.6-1.1s-1.1-1.7-1.1-2.9c0-1.2,0.4-2.2,1.1-2.9s1.6-1.1,2.6-1.1s1.8,0.3,2.6,1.1
		c0.7,0.7,1.1,1.7,1.1,2.9C66.3,23,65.9,24,65.2,24.7z"/>
	<path class="st0" d="M125.8,15.9c0-1.4-0.5-2.6-1.5-3.5c-1-0.9-2.2-1.4-3.6-1.4h-5.6v16.4h2.1v-6.6h3.5c1.4,0,2.6-0.5,3.6-1.4
		C125.3,18.5,125.9,17.3,125.8,15.9z M122.9,17.9c-0.5,0.6-1.2,0.9-2.1,0.9h-3.5v-5.7h3.5c0.9,0,1.6,0.3,2.1,0.8
		c0.5,0.6,0.8,1.3,0.8,2S123.4,17.3,122.9,17.9z"/>
	<path class="st0" d="M139.1,17.2c-1-0.9-2.2-1.3-3.6-1.3c-1.2,0-2.2,0.3-3,0.9c-0.7,0.6-1.2,1.2-1.5,1.9l1.9,0.8
		c0.2-0.5,0.5-0.9,1-1.2c0.5-0.3,1.1-0.4,1.7-0.4c0.8,0,1.5,0.2,2.1,0.7c0.5,0.5,0.8,1.2,0.8,2v0.3c-0.7-0.5-1.8-0.7-3-0.7
		c-1.4,0-2.6,0.3-3.5,1c-0.9,0.7-1.4,1.7-1.4,2.9c0,1.1,0.4,2,1.2,2.7c0.8,0.7,1.8,1,3,1c1.6,0,2.9-0.6,3.7-1.9h0.1v1.6h1.9v-6.7
		C140.5,19.2,140,18,139.1,17.2z M137.5,24.9c-0.7,0.7-1.5,1-2.4,1c-0.6,0-1.1-0.2-1.6-0.5s-0.7-0.8-0.7-1.3c0-0.6,0.3-1.2,0.8-1.6
		c0.5-0.4,1.2-0.6,2.3-0.6c1.2,0,2.1,0.2,2.7,0.7C138.6,23.5,138.2,24.3,137.5,24.9z"/>
	<path class="st0" d="M108.9,21.9c0-1.9-0.5-3.3-1.5-4.4c-1-1.1-2.3-1.6-4-1.6c-1.7,0-3,0.6-4,1.8s-1.5,2.6-1.5,4.2
		c0,1.7,0.5,3.2,1.6,4.3c1,1.1,2.4,1.7,4.1,1.7c1.2,0,2.3-0.3,3.1-0.9c0.8-0.6,1.4-1.3,1.8-2.2l-1.9-0.8c-0.6,1.3-1.6,1.9-3.1,1.9
		c-0.9,0-1.7-0.3-2.4-1s-1-1.6-1.1-2.7h8.9V21.9z M100.2,20.5c0.2-0.9,0.6-1.5,1.2-2c0.5-0.5,1.2-0.7,2-0.7c1.1,0,1.9,0.3,2.4,0.9
		c0.6,0.5,0.9,1.2,0.9,1.8H100.2z"/>
	<path class="st0" d="M92.5,26.9V16.2h-2v1.6h-0.1c-0.4-0.6-0.9-1-1.6-1.4c-0.7-0.3-1.5-0.5-2.3-0.5c-1.5,0-2.7,0.6-3.8,1.7
		c-1.1,1.2-1.6,2.6-1.6,4.3s0.5,3.2,1.6,4.3c1.1,1.1,2.3,1.7,3.8,1.7c0.9,0,1.6-0.2,2.3-0.6c0.7-0.4,1.2-0.9,1.6-1.4h0.1V27
		c0,1.2-0.3,2.1-1,2.8c-0.6,0.7-1.5,1-2.7,1c-0.8,0-1.4-0.2-2-0.6s-1-0.9-1.2-1.5l-1.9,0.8c0.4,0.9,1,1.6,1.8,2.3c0.9,0.7,2,1,3.3,1
		c1.6,0,3-0.5,4.1-1.5C92,30.3,92.6,28.8,92.5,26.9L92.5,26.9z M89.5,24.7c-0.7,0.7-1.5,1.1-2.5,1.1s-1.8-0.4-2.5-1.1
		s-1.1-1.7-1.1-2.9c0-1.2,0.4-2.2,1.1-2.9s1.5-1.1,2.5-1.1s1.8,0.3,2.5,0.9c0.7,0.8,1,1.8,1,3C90.5,23,90.2,24,89.5,24.7z"/>
</g>
<g>
	<path class="st0" d="M73.2,0.9C72.6,0.3,71.8,0,70.9,0c-0.9,0-1.7,0.3-2.3,0.9c-1.2,1.3-1.2,3.3,0,4.6c0.7,0.6,1.5,0.9,2.3,0.9
		c0.9,0,1.7-0.3,2.3-0.9C74.4,4.2,74.4,2.2,73.2,0.9z M72.5,4.8c-0.9,0.9-2.3,0.9-3.1,0c-0.9-0.9-0.9-2.4,0-3.3
		c0.8-0.9,2.2-0.9,3.1,0C73.4,2.4,73.4,3.9,72.5,4.8z"/>
	<path class="st0" d="M75,0.1h1.1l2.8,4.4V0.1h1v6.2h-1L76,1.7v4.6h-1V0.1z M61.1,0.1h4.3V1h-1.7v5.3h-1V1H61L61.1,0.1L61.1,0.1z
		 M59.3,0.1h1v6.2h-1V0.1z M47.9,0.1h3.7V1h-2.7v1.7h2.5v0.9h-2.5v1.7h2.7v0.9h-3.7V0.1z M41.7,0.9C42.3,0.3,43.1,0,43.9,0
		c0,0,0,0,0.1,0c0.4,0,0.9,0.1,1.3,0.3c0.4,0.2,0.7,0.4,1,0.7l0.1,0.1l-0.7,0.7l-0.1-0.1C45.2,1.3,44.7,1,44.1,1H44l0,0
		c-0.6,0-1.2,0.2-1.6,0.7c-0.4,0.4-0.6,1-0.6,1.6c0,0.9,0.5,1.7,1.4,2.1C44,5.8,45,5.6,45.7,4.9c0.3-0.3,0.4-0.7,0.5-1H44V3h3.1v0.1
		c0,0.2,0,0.3,0,0.5c0,0.8-0.2,1.5-0.8,2.1s-1.4,0.9-2.2,0.9H44c-1.3,0-2.5-0.8-3-2C40.5,3.2,40.8,1.8,41.7,0.9z M3,1.2
		c7.2,4,14.4,8,21.5,12.1c0.3,0.2,0.3,0.3,0.1,0.5c-1.6,1.6-3.2,3.2-4.8,4.8c-0.2,0.2-0.3,0.3-0.5,0C13.6,12.8,7.9,7,2.1,1.1
		c0,0-0.1-0.1-0.2-0.2C2.4,0.9,2.7,1,3,1.2z M0.8,36.7C0.2,36.2,0,35.6,0,34.9c0-3.1,0-6.2,0-9.3c0-2.2,0-4.4,0-6.6l0,0
		C0,13.8,0,8.5,0,3.3c0-0.6,0.1-1.2,0.6-1.7c0.2-0.2,0.3-0.2,0.5,0c3.5,3.6,7.1,7.2,10.6,10.8c2.3,2.3,4.6,4.7,6.9,7
		c0.2,0.2,0.2,0.3,0,0.6C12.9,25.4,7.3,31,1.7,36.6C1.4,37,1.1,36.9,0.8,36.7z M23.9,25.3c-6.7,3.7-13.4,7.3-20.1,11
		c-0.1,0.1-0.2,0.2-0.3,0.2C8.7,31.2,13.9,26,19.1,20.7c0.3-0.3,0.5-0.3,0.8,0c1.3,1.4,2.7,2.7,4,4.1C24.2,25,24.3,25.1,23.9,25.3z
		 M32.7,20.4c-0.3,0.2-0.7,0.4-1,0.6c-2,1.1-4.1,2.2-6.1,3.4c-0.3,0.2-0.4,0.1-0.7-0.1c-1.4-1.5-2.9-3-4.3-4.4
		c-0.2-0.2-0.2-0.3,0-0.5c1.7-1.7,3.4-3.4,5.1-5c0.2-0.2,0.3-0.2,0.6-0.1c2,1.1,4,2.2,6,3.4c0.6,0.3,1.1,0.8,1.1,1.5
		C33.4,19.7,33.1,20.1,32.7,20.4z M53.9,25.4c-1.5,1.6-3.6,2.4-6,2.4s-4.4-0.8-6-2.5c-1.7-1.6-2.5-3.7-2.5-6.1s0.8-4.5,2.5-6.1
		s3.7-2.5,6-2.5c1.2,0,2.3,0.2,3.4,0.7c1.1,0.5,1.9,1.1,2.6,1.8l-1.6,1.5c-1.1-1.3-2.6-1.9-4.5-1.9c-1.7,0-3.2,0.6-4.5,1.8
		c-1.3,1.2-1.9,2.8-1.9,4.7s0.6,3.5,1.9,4.7c1.3,1.2,2.8,1.8,4.5,1.8c1.8,0,3.4-0.6,4.6-1.8c0.8-0.8,1.3-1.9,1.4-3.3h-6v-2h8
		c0.1,0.4,0.1,0.8,0.1,1.2C55.9,22.2,55.2,24,53.9,25.4z M56.6,1h-1.7v5.3h-1V1h-1.7V0.1h4.4V1z M96.7,27.5h-2.1V11h2.1V27.5z
		 M129.3,27.5h-2.1V11h2.1V27.5z M145.2,32.4H143l2.6-5.7L141,16.2h2.3l3.3,8.1l0,0l3.3-8.1h2.3L145.2,32.4z"/>
</g>
</svg>
