<?xml version="1.0" encoding="utf-8"?>
<!-- Generator: Adobe Illustrator 24.1.2, SVG Export Plug-In . SVG Version: 6.00 Build 0)  -->
<svg version="1.1" id="Layer_1" xmlns="http://www.w3.org/2000/svg" xmlns:xlink="http://www.w3.org/1999/xlink" x="0px" y="0px"
	 viewBox="0 0 56.8 25.6" style="enable-background:new 0 0 56.8 25.6;" xml:space="preserve">
<style type="text/css">
	.st0{fill:#868D93;}
</style>
<g id="logo_chick-fil-a_9_">
	<g>
		<g id="Chick-fil-A_Logo_9_" transform="translate(21.581081, 2.000000)">
			
				<g id="g3012_9_" transform="translate(39.000044, 17.894828) scale(-1, 1) rotate(-180.000000) translate(-39.000044, -17.894828) translate(0.000044, 0.394828)">
				<g id="g3014_9_">
					<path id="path3016_9_" class="st0" d="M32.9,22.7c-0.3,0-0.6,0.3-0.6,0.6c0,0.3,0.3,0.6,0.6,0.6c0.3,0,0.6-0.3,0.6-0.6
						C33.5,23,33.3,22.7,32.9,22.7 M32.9,24.1c-0.4,0-0.7-0.3-0.7-0.7c0-0.4,0.3-0.7,0.7-0.7c0.4,0,0.7,0.3,0.7,0.7
						C33.6,23.7,33.3,24.1,32.9,24.1"/>
					<path id="path3018_9_" class="st0" d="M32.9,23.2L32.9,23.2l0.1,0c0,0,0.1,0,0.1,0c0,0,0.1,0,0.1-0.1c0,0,0,0,0-0.1
						c0,0,0-0.1,0-0.1h0.2l0,0c0,0,0,0,0,0c0,0,0,0,0,0v0.1c0,0.1,0,0.1-0.1,0.2c0,0-0.1,0-0.1,0c0.1,0,0.1,0,0.2,0.1
						c0,0,0.1,0.1,0.1,0.1c0,0.1,0,0.1-0.1,0.2c0,0-0.1,0-0.2,0c0,0-0.1,0-0.2,0h-0.2v-0.8h0.2V23.2L32.9,23.2z M33.1,23.4
						c0,0-0.1,0-0.1,0h-0.1v0.2h0.1c0.1,0,0.1,0,0.1,0C33.1,23.5,33.1,23.5,33.1,23.4C33.1,23.4,33.1,23.4,33.1,23.4"/>
					<path id="path3020_9_" class="st0" d="M5.4,20C5.9,20,6,19.6,6,19.3c-0.1-1.1-1.5-1.9-1.9-2C4.2,19.5,4.9,20,5.4,20 M-9.1,19.8
						c-0.3-0.4-0.7-0.9-1.1-1.5c0,0.2,0,0.4,0.1,0.6c0.4,2.9,0.9,3.9,1.6,3.8c0.2,0,0.3-0.3,0.3-0.5C-8.1,21.6-8.4,20.8-9.1,19.8
						 M30.6,17.1c-0.4,0.5-0.7,1.1-1,1.7c-0.5-0.7-1-1.3-1.5-2C28.9,16.8,29.7,16.9,30.6,17.1 M29.9,21.4c0.3,0.6,0.5,1,0.5,1.4
						c0,0.2,0,0.6-0.3,0.6C29.5,23.4,29.5,22.6,29.9,21.4 M20.7,17.9c1.3,1.5,1.9,3.7,1.8,4.6c0,0.2-0.1,0.3-0.3,0.3
						C21.6,22.8,20.2,20.1,20.7,17.9 M13.3,16c-0.5,0.2-0.9,0.4-1.2,0.8c0,0,0,0-0.1,0c0,0,0,0,0-0.1c0-1.9,0.6-3.6,1.3-3.5
						C14.2,13.2,13.8,14.8,13.3,16 M12.2,18.2c1.4,1.4,2.6,3.5,2.6,4.6c0,0.2,0,0.4-0.2,0.4C14.1,23.2,12.6,21.7,12.2,18.2 M8,16.8
						c-0.6-0.1-0.7-1.4-1.9-1.4c-0.8,0-1.2,0.9-1.2,0.9s2.2,1,2.2,3.3c0,0.6-0.4,1.7-1.5,1.7c-0.5,0-1.1-0.3-1.4-0.7
						c0.1,0.6,0.2,1.4,0.3,2.4c0,0.7-0.4,0.8-0.6,0.7c-0.1,0-0.5-0.1-0.6-0.7c-0.2-2.1-0.2-2.4-0.4-3.7c-0.3-2.4-2-3.3-3.1-3.2
						c-0.5,0-1.2,0.3-1.2,1.6c0,1.4,0.9,2.4,1.3,2.3c0.3,0,0.5-0.4,0.2-0.9c-0.2-0.4-0.5-1,0.1-1.2c0.7-0.2,1.2,0.8,1.3,1.8
						c0,0.8-0.5,1.6-1.6,1.7c-1.2,0.1-2.6-1.6-2.6-3.8c0-0.2,0-0.4,0-0.5c-0.1-0.5-0.5-1-0.9-1c-0.5,0-0.8,0.7-0.8,1.6
						c0.1,0.9,0.3,1.5,0.4,1.9c0.2,0.8,0,0.9-0.4,1c-0.3,0.1-0.7,0-0.9-0.8C-5.5,19-5.7,18-6,17.4c-0.1-0.4-0.3-0.9-0.6-1.2
						c-0.2-0.2-0.4-0.4-0.6-0.4c-0.7,0-0.1,1.5-0.1,2.6c0,0.3-0.2,0.8-1,0.7c0.8,1.2,1.2,2.3,1.2,3.4c0,1.2-0.9,1.5-1.5,1.5
						c-1.7,0-2.6-2-2.9-6.6c-1.5-1.5-3.4-2.4-5.1-2.3c-2.5,0.2-3.8,2.8-3.6,5.9c0.2,4.3,3.5,9.6,6.6,9.3c1.1-0.1,1.8-1.1,1.7-3.3
						c-0.1-2.5-1.9-6.2-3.7-6.1c-0.8,0.1-1.1,1-1,1.8c0.1,1.8,1,2.2,1,2.9c0,0.4-0.4,0.6-0.7,0.5c-0.5-0.2-1.5-1.5-1.6-3.4
						c-0.2-2.3,1.3-3,2.2-3.1c2.5-0.2,5,3.6,5.2,7.5c0.1,2.5-0.9,4.2-2.9,4.4c-3.9,0.4-7.9-4.9-8.1-10.5c-0.1-3.4,1.4-6.9,5-7.1
						c1.7-0.1,3.5,0.6,5.1,1.9c0-0.3,0-0.5,0-0.7c0-0.5,0.2-0.9,0.7-0.9c0.5,0,0.6,0.4,0.6,0.8c0,0.2,0,0.5,0,0.7
						c0.1,2,1.1,2.3,1.5,2.3c0.5-0.1,0.1-0.6,0.2-2.1c0-1,0.9-1.3,1.2-1.3c0.9,0,1.6,0.7,2.1,1.7l0,0c0.4-1,1.1-1.4,1.6-1.4
						c0.6,0,1.2,0.5,1.6,1c0.5-0.7,1.2-1,1.8-1c1.1-0.1,2.1,0.5,2.8,1.2c-0.1-0.6-0.2-1.3-0.2-1.5c0-0.3,0.1-0.6,0.5-0.6
						c0.5-0.1,0.9,0.3,1.1,2.1c0,0,0.7-1.8,2.4-1.8c1.6,0,2.3,1.7,2.3,2.2C8.4,16.5,8.4,16.8,8,16.8 M-7.7,26.3
						c0,0.5-1.4,1.5-2.3,1.6c0-0.3,0-0.6,0-0.9c0-0.7-0.1-1.4-0.3-2.2C-8.6,26.2-7.7,25.8-7.7,26.3 M34.2,14.2c-1,0.1-2,0.8-2.8,1.9
						c-1.6-0.4-3.2-0.5-4.3-0.4c-0.9-1-1.8-1.8-2.5-2.3c0,0-0.9-0.7-1.3-0.1c-0.2,0.4-0.1,0.8,0.5,1.3c0.4,0.3,0.9,0.7,1.5,1.3
						c-1,0.3-0.7,1.3,0.2,1.2c0.1,0,0.4-0.1,0.9-0.1c0.9,1,1.9,2.2,2.6,3.3c-0.3,0.9-0.5,1.8-0.5,2.5c0,0.9,0.5,2,1.5,2
						c1,0,1.5-0.9,1.5-1.8c0-0.8-0.4-1.8-1.1-2.9c0.4-0.9,0.9-1.8,1.4-2.5c0.6,0.2,1.2,0.5,1.8,0.8c0.8,0.5,1.4-0.4,0.6-1
						c-0.5-0.3-1-0.6-1.6-0.8c0.6-0.6,1.2-1,1.8-1C35.5,15.3,35.5,14.1,34.2,14.2 M24.4,16.9c-0.1-0.5-0.7-1.9-2.3-1.9h0
						c-0.7,0-1.4,0.4-1.9,1c-0.7-0.5-1.4-0.7-1.9-0.6c-1.1,0.2-1.4,1.1-1.5,1.7c-0.6-0.8-1.5-1.2-2.3-1.2c0.3-0.6,0.4-1.3,0.4-1.9
						c0-1-0.6-2.1-1.6-2.1c-1.4,0-2.3,2.1-2.4,4.1c-0.2-0.1-0.6-0.2-0.8,0.2c-0.2,0.5,0.3,0.9,0.8,1.2c0.1,4.1,1.8,6.9,3.6,6.9
						c0.6,0,1.3-0.4,1.3-1.6c0-1.2-0.7-2.8-1.8-4.2c-0.2-0.2-0.5-0.6-0.9-1c1.6-1.2,2.6,0.1,3,0.9c0.1,0.2,0.2,0.4,0.2,0.6
						c0.2,0.7,0.2,0.5,0.4,1.2c0.3,1,0.8,0.9,1,0.9c0.8-0.1,0.3-1.1,0.1-1.9l0,0c-0.3-1.4-0.2-2.5,0.7-2.7c0.3,0,0.7,0.1,1.2,0.5
						c-1.1,3,0.6,6.5,2.3,6.8c0.6,0.1,1.3-0.1,1.5-1.2c0.2-1.1-0.2-2.7-1-4.2c-0.2-0.3-0.7-1.1-1.4-1.7c0,0,0,0,0,0
						c0.5-0.7,1.1-0.7,1.1-0.7c0.9,0,1.2,0.7,1.3,1c0.1,0.3,0.4,0.5,0.7,0.4C24.4,17.5,24.5,17.2,24.4,16.9 M18,23.1
						c-0.4,0-0.7-0.3-0.7-0.7c0-0.4,0.3-0.7,0.7-0.7c0.4,0,0.7,0.3,0.7,0.7C18.7,22.8,18.4,23.1,18,23.1 M25.8,18.5
						c0.9,0,1.2,0.4,1.2,0.7c0,0.5-0.5,0.7-1.2,0.7c-0.7,0-1.2-0.3-1.2-0.7C24.6,18.9,24.9,18.5,25.8,18.5 M9.1,18.5
						c0.9,0,1.2,0.4,1.2,0.7c0,0.5-0.5,0.7-1.2,0.7c-0.7,0-1.2-0.3-1.2-0.7C7.9,18.9,8.2,18.5,9.1,18.5 M-4,22.4
						c-0.4,0-0.7-0.3-0.7-0.8c0-0.4,0.3-0.8,0.7-0.8c0.4,0,0.7,0.3,0.7,0.8C-3.3,22-3.6,22.4-4,22.4 M-19.2,33.1
						c-0.3-0.4-0.2-1.1,0.4-1.6c0.6-0.5,1.4-0.7,1.8-0.3c0.3,0.4,0,1.3-0.6,1.8C-18.2,33.5-18.9,33.5-19.2,33.1 M-16.8,36
						c-0.6-0.3-0.9-1.2-0.4-2.3c0.5-1.1,1.4-1.9,2.1-1.6c0.6,0.3,0.7,1.6,0.2,2.7C-15.4,35.9-16.2,36.3-16.8,36 M-11.9,37.4
						c-0.9,0.2-1.7-0.5-2-2c-0.3-1.4,0.1-3,1-3.2c0.9-0.2,1.8,1,2.1,2.4C-10.6,36.1-11.1,37.2-11.9,37.4 M-5.8,35
						c-0.7,0.9-2.1,1-3.5-0.1c-1.4-1.1-2.2-2.9-1.6-3.9c0.7-0.9,2.5-0.6,3.9,0.5C-5.5,32.6-5.1,34.1-5.8,35 M-12.6,27.8
						c0-0.8-0.9-1.7-1.3-1c-0.2,0.5,0.3,1.5,0.9,1.5C-12.7,28.4-12.6,28-12.6,27.8"/>
				</g>
			</g>
		</g>
	</g>
</g>
</svg>
