<?xml version="1.0" encoding="utf-8"?>
<!-- Generator: Adobe Illustrator 24.1.2, SVG Export Plug-In . SVG Version: 6.00 Build 0)  -->
<svg version="1.1" id="Layer_1" xmlns="http://www.w3.org/2000/svg" xmlns:xlink="http://www.w3.org/1999/xlink" x="0px" y="0px"
	 viewBox="0 0 63.9 21.9" style="enable-background:new 0 0 63.9 21.9;" xml:space="preserve">
<style type="text/css">
	.st0{fill:#878E94;}
</style>
<g id="logo_apple_2_">
	<g>
		<g id="apple-11_9_" transform="translate(13.414286, 4.000000)">
			<path id="Path_9_" class="st0" d="M1.5,7.6c0-2.8,2.3-4.1,2.4-4.2c-1.3-1.9-3.3-2.1-4-2.2c-1.7-0.2-3.3,1-4.2,1s-2.2-1-3.6-0.9
				c-1.9,0-3.6,1.1-4.5,2.7c-1.9,3.3-0.5,8.3,1.4,11c0.9,1.3,2,2.8,3.5,2.8c1.4-0.1,1.9-0.9,3.6-0.9s2.1,0.9,3.6,0.9
				c1.5,0,2.4-1.4,3.3-2.7c1.1-1.5,1.5-3,1.5-3.1C4.4,12,1.5,10.9,1.5,7.6"/>
			<path id="Shape_8_" class="st0" d="M-1.3-0.5C-0.5-1.4,0-2.7-0.2-4c-1.1,0-2.4,0.7-3.2,1.7C-4.1-1.5-4.7-0.2-4.5,1
				C-3.3,1.1-2.1,0.4-1.3-0.5 M11.1,10.3l-1.3,3.8H8.2L12.4,2h1.9l4.2,12.2h-1.7l-1.3-3.8H11.1z M15.1,9.1l-1.2-3.5
				c-0.3-0.8-0.5-1.5-0.6-2.2h0c-0.2,0.7-0.4,1.5-0.6,2.2l-1.2,3.5L15.1,9.1z M19.7,8.3c0-1.1,0-2-0.1-2.9H21l0.1,1.5h0
				c0.7-1.1,1.7-1.7,3.1-1.7c2.1,0,3.7,1.8,3.7,4.5c0,3.2-1.9,4.7-4,4.7c-1.2,0-2.2-0.5-2.7-1.4h0v4.8h-1.6V8.3L19.7,8.3z
				 M21.2,10.6c0,0.2,0,0.5,0.1,0.7c0.3,1.1,1.2,1.9,2.4,1.9c1.7,0,2.7-1.4,2.7-3.4c0-1.8-0.9-3.3-2.6-3.3c-1.1,0-2.1,0.8-2.4,2
				c-0.1,0.2-0.1,0.4-0.1,0.7L21.2,10.6L21.2,10.6z M29.6,8.3c0-1.1,0-2-0.1-2.9h1.4L31,6.9h0c0.7-1.1,1.7-1.7,3.1-1.7
				c2.1,0,3.7,1.8,3.7,4.5c0,3.2-1.9,4.7-4,4.7c-1.2,0-2.2-0.5-2.7-1.4h0v4.8h-1.6V8.3L29.6,8.3z M31.2,10.6c0,0.2,0,0.5,0.1,0.7
				c0.3,1.1,1.2,1.9,2.4,1.9c1.7,0,2.7-1.4,2.7-3.4c0-1.8-0.9-3.3-2.6-3.3c-1.1,0-2.1,0.8-2.4,2c-0.1,0.2-0.1,0.4-0.1,0.7L31.2,10.6
				L31.2,10.6z M39.5,1.3h1.6v12.8h-1.6V1.3z M44.3,10.1c0,2.2,1.4,3,3,3c1.1,0,1.8-0.2,2.4-0.5l0.3,1.1c-0.6,0.3-1.5,0.5-2.9,0.5
				c-2.7,0-4.3-1.8-4.3-4.4s1.6-4.7,4.1-4.7c2.9,0,3.6,2.5,3.6,4.1c0,0.3,0,0.6-0.1,0.7H44.3z M49,9c0-1-0.4-2.6-2.2-2.6
				c-1.6,0-2.3,1.5-2.4,2.6H49L49,9z"/>
		</g>
	</g>
</g>
</svg>
